<svg width="29" height="30" viewBox="0 0 29 30" fill="none" xmlns="http://www.w3.org/2000/svg">
<g clip-path="url(#clip0_300_2024)">
<mask id="mask0_300_2024" style="mask-type:luminance" maskUnits="userSpaceOnUse" x="5" y="7" width="20" height="17">
<path d="M25 7.2124H5V23.2124H25V7.2124Z" fill="white"/>
</mask>
<g mask="url(#mask0_300_2024)">
<path d="M15.6199 14.5527L24.3599 9.03271C24.7299 8.80271 24.8198 8.3024 24.5498 7.9624C24.1898 7.5024 23.63 7.2124 23 7.2124H7C6.34 7.2124 5.74989 7.54248 5.38989 8.04248C5.13989 8.38248 5.24985 8.86252 5.59985 9.08252L14.3799 14.5527C14.7599 14.7927 15.2399 14.7927 15.6199 14.5527Z" fill="white"/>
<path d="M14.3799 16.8325L5.72998 11.4326C5.41998 11.2426 5 11.4628 5 11.8428V21.2124C5 22.3224 5.9 23.2124 7 23.2124H23C24.11 23.2124 25 22.3224 25 21.2124V11.7827C25 11.4027 24.59 11.1726 24.27 11.3726L15.6199 16.8325C15.2399 17.0625 14.7599 17.0625 14.3799 16.8325Z" fill="white"/>
</g>
</g>
<defs>
<clipPath id="clip0_300_2024">
<rect width="20" height="16" fill="white" transform="translate(5 7.2124)"/>
</clipPath>
</defs>
</svg>
