<svg width="38" height="39" viewBox="0 0 38 39" fill="none" xmlns="http://www.w3.org/2000/svg">
<path d="M19 0.212402C13.9609 0.212402 9.12816 2.21418 5.56497 5.77737C2.00178 9.34056 0 14.1733 0 19.2124C0 24.2515 2.00178 29.0842 5.56497 32.6474C9.12816 36.2106 13.9609 38.2124 19 38.2124C24.0391 38.2124 28.8718 36.2106 32.435 32.6474C35.9982 29.0842 38 24.2515 38 19.2124C38 14.1733 35.9982 9.34056 32.435 5.77737C28.8718 2.21418 24.0391 0.212402 19 0.212402Z" fill="#039BE5"/>
<path d="M21.572 24.2484H26.489L27.261 19.2534H21.571V16.5234C21.571 14.4484 22.249 12.6084 24.19 12.6084H27.309V8.24943C26.761 8.17543 25.602 8.01343 23.412 8.01343C18.839 8.01343 16.158 10.4284 16.158 15.9304V19.2534H11.457V24.2484H16.158V37.9774C17.089 38.1174 18.032 38.2124 19 38.2124C19.875 38.2124 20.729 38.1324 21.572 38.0184V24.2484Z" fill="white"/>
</svg>
