<svg width="83" height="83" viewBox="0 0 83 83" fill="none" xmlns="http://www.w3.org/2000/svg">
<path d="M41.3332 0C18.5053 0 0 18.5053 0 41.3332C0 64.1612 18.5053 82.6665 41.3332 82.6665C64.1612 82.6665 82.6664 64.1612 82.6664 41.3332C82.6664 18.5053 64.1612 0 41.3332 0ZM41.3332 2.66666C62.6878 2.66666 79.9998 19.9786 79.9998 41.3332C79.9998 62.6892 62.6878 79.9998 41.3332 79.9998C19.9786 79.9998 2.66666 62.6892 2.66666 41.3332C2.66666 19.9786 19.9786 2.66666 41.3332 2.66666ZM50.0412 14.6666C48.0732 14.508 46.0772 15.3 44.7505 16.9586L28.3333 37.4999C26.5359 39.7479 26.5359 42.9199 28.3333 45.1665L44.7505 65.7091C46.8732 68.3625 50.7212 68.7905 53.3745 66.6665C56.0292 64.5438 56.4558 60.6545 54.3332 57.9998L40.9999 41.3332L54.3332 24.6666C56.4558 22.0133 56.0292 18.124 53.3745 16C52.3799 15.204 51.2225 14.7626 50.0412 14.6666Z" fill="#58C0CE"/>
</svg>
