<svg width="24" height="24" viewBox="0 0 24 24" fill="none" xmlns="http://www.w3.org/2000/svg">
<path d="M9.7909 9.79066C10.9255 8.65622 12.4528 8.00124 14.0568 7.9612C15.6608 7.92116 17.2189 8.49913 18.4087 9.57554L18.6351 9.79066L22.1722 13.3288C23.3242 14.4828 23.9799 16.041 23.9995 17.6714C24.0192 19.3017 23.4012 20.8753 22.2773 22.0566C21.1535 23.238 19.6126 23.9337 17.9831 23.9955C16.3537 24.0573 14.7646 23.4802 13.5545 22.3874L13.3293 22.1723L10.6752 19.5184C10.4509 19.2933 10.3206 18.9913 10.3109 18.6737C10.3012 18.3561 10.4128 18.0467 10.623 17.8083C10.8331 17.57 11.1262 17.4206 11.4425 17.3905C11.7588 17.3603 12.0748 17.4517 12.3262 17.6461L12.4438 17.7499L15.0979 20.4038C15.7859 21.0958 16.7164 21.4925 17.6921 21.5099C18.6678 21.5272 19.6119 21.1638 20.3241 20.4968C21.0363 19.8297 21.4605 18.9115 21.5069 17.9368C21.5533 16.9621 21.2181 16.0078 20.5725 15.2761L20.4036 15.0972L16.8665 11.5604C16.518 11.2119 16.1044 10.9355 15.6491 10.7469C15.1938 10.5583 14.7058 10.4612 14.213 10.4612C13.7202 10.4612 13.2322 10.5583 12.7769 10.7469C12.3216 10.9355 11.9079 11.2119 11.5595 11.5604C11.3248 11.7949 11.0065 11.9265 10.6747 11.9264C10.343 11.9263 10.0248 11.7944 9.79027 11.5597C9.55575 11.3251 9.42405 11.0068 9.42417 10.6751C9.42429 10.3433 9.55621 10.0252 9.7909 9.79066ZM1.83103 1.83141C2.96564 0.696968 4.49291 0.0419889 6.09693 0.00194963C7.70095 -0.0380896 9.259 0.539875 10.4488 1.61629L10.6752 1.83141L13.3281 4.48658C13.5524 4.71164 13.6826 5.01365 13.6923 5.33126C13.702 5.64886 13.5905 5.95825 13.3803 6.19659C13.1701 6.43492 12.8771 6.58433 12.5607 6.61446C12.2444 6.6446 11.9284 6.55319 11.6771 6.35883L11.5595 6.25502L8.90661 3.60235C8.2174 2.91769 7.28948 2.527 6.31807 2.51249C5.34666 2.49798 4.40748 2.86077 3.69813 3.52455C2.98877 4.18832 2.56454 5.10133 2.51467 6.0715C2.46481 7.04166 2.7932 7.99335 3.43076 8.72634L3.59962 8.90644L7.13803 12.4446C7.84169 13.148 8.79593 13.5431 9.7909 13.5431C10.7859 13.5431 11.7401 13.148 12.4438 12.4446C12.5599 12.3284 12.6978 12.2362 12.8495 12.1733C13.0013 12.1103 13.164 12.0779 13.3282 12.0779C13.4925 12.0778 13.6552 12.1101 13.807 12.1729C13.9588 12.2357 14.0968 12.3278 14.213 12.444C14.3292 12.5601 14.4214 12.6979 14.4843 12.8497C14.5472 13.0014 14.5796 13.1641 14.5797 13.3284C14.5798 13.4926 14.5475 13.6553 14.4846 13.8071C14.4218 13.9589 14.3297 14.0968 14.2136 14.213C13.079 15.3475 11.5517 16.0024 9.94771 16.0425C8.34369 16.0825 6.78564 15.5046 5.59584 14.4281L5.3682 14.213L1.83103 10.6749C0.658624 9.50221 0 7.91193 0 6.25377C0 4.59561 0.658624 3.00408 1.83103 1.83141Z" fill="white"/>
</svg>
