<svg width="29" height="30" viewBox="0 0 29 30" fill="none" xmlns="http://www.w3.org/2000/svg">
<g clip-path="url(#clip0_300_2014)">
<mask id="mask0_300_2014" style="mask-type:luminance" maskUnits="userSpaceOnUse" x="7" y="7" width="17" height="17">
<path d="M23.2949 7.2124H6.99997V23.5337H23.2949V7.2124Z" fill="white"/>
</mask>
<g mask="url(#mask0_300_2014)">
<path d="M11.4599 19.0322C12.3099 19.8722 13.2 20.6423 14.13 21.3223C15.07 21.9923 16.01 22.5321 16.95 22.9321C17.88 23.3321 18.77 23.5322 19.61 23.5322C20.18 23.5322 20.71 23.4322 21.2 23.2222C21.69 23.0222 22.14 22.7022 22.54 22.2622C22.77 22.0022 22.9599 21.7221 23.0899 21.4321C23.2299 21.1321 23.29 20.8322 23.29 20.5322C23.29 20.3122 23.25 20.1023 23.16 19.9023C23.07 19.6923 22.9199 19.5221 22.7099 19.3721L20.01 17.4624C19.81 17.3224 19.62 17.2121 19.44 17.1421C19.27 17.0721 19.1 17.0322 18.94 17.0322C18.74 17.0322 18.55 17.0921 18.36 17.2021C18.17 17.3121 17.98 17.4621 17.78 17.6621L17.16 18.2725C17.07 18.3725 16.96 18.4121 16.82 18.4121C16.75 18.4121 16.69 18.4023 16.63 18.3823C16.56 18.3623 16.5099 18.3423 16.4699 18.3223C16.1999 18.1723 15.85 17.9225 15.42 17.5625C14.99 17.2025 14.56 16.8021 14.13 16.3721C13.7 15.9321 13.3 15.502 12.94 15.082C12.58 14.652 12.32 14.3022 12.18 14.0322C12.16 13.9822 12.14 13.9321 12.12 13.8721C12.1 13.8021 12.0899 13.7421 12.0899 13.6821C12.0899 13.5521 12.1299 13.4421 12.2199 13.3521L12.8399 12.7124C13.0399 12.5124 13.19 12.3223 13.3 12.1323C13.41 11.9423 13.4699 11.7522 13.4699 11.5522C13.4699 11.3922 13.43 11.2322 13.36 11.0522C13.28 10.8722 13.17 10.6824 13.03 10.4824L11.14 7.82227C10.99 7.60227 10.7999 7.45205 10.5899 7.35205C10.3799 7.26205 10.16 7.2124 9.92001 7.2124C9.32001 7.2124 8.75995 7.46217 8.22995 7.97217C7.79995 8.38217 7.49001 8.84203 7.29001 9.33203C7.10001 9.83203 6.99997 10.3624 6.99997 10.9224C6.99997 11.7624 7.18994 12.652 7.58994 13.582C7.97994 14.512 8.51003 15.4421 9.19003 16.3721C9.86003 17.3021 10.6199 18.1922 11.4599 19.0322Z" fill="white"/>
</g>
</g>
<defs>
<clipPath id="clip0_300_2014">
<rect width="16.2949" height="16.3213" fill="white" transform="translate(6.99997 7.2124)"/>
</clipPath>
</defs>
</svg>
