<svg width="83" height="83" viewBox="0 0 83 83" fill="none" xmlns="http://www.w3.org/2000/svg">
<path d="M41.5022 0C64.3314 0 82.838 18.5053 82.838 41.3332C82.838 64.1612 64.3314 82.6665 41.5022 82.6665C18.6742 82.6665 0.168945 64.1612 0.168945 41.3332C0.168945 18.5053 18.6742 0 41.5022 0ZM41.5022 2.66666C20.1476 2.66666 2.8356 19.9786 2.8356 41.3332C2.8356 62.6892 20.1476 79.9998 41.5022 79.9998C62.8514 79.9998 80.1713 62.6892 80.1713 41.3332C80.1713 19.9786 62.8514 2.66666 41.5022 2.66666ZM32.7942 14.6666C34.7622 14.508 36.7582 15.3 38.0849 16.9586L54.5048 37.4999C56.3048 39.7479 56.3048 42.9199 54.5048 45.1665L38.0849 65.7091C35.9622 68.3625 32.1142 68.7905 29.4609 66.6665C26.8062 64.5438 26.3795 60.6545 28.5022 57.9998L41.8355 41.3332L28.5022 24.6666C26.3795 22.0133 26.8062 18.124 29.4609 16C30.4555 15.204 31.6129 14.7626 32.7942 14.6666Z" fill="#58C0CE"/>
</svg>
