<svg width="450" height="450" viewBox="0 0 86 86" fill="none" xmlns="http://www.w3.org/2000/svg">
<path d="M62.3198 42.8789C62.3198 50.1322 58.3999 56.4522 52.5599 59.8655L42.6532 42.8789H62.3198Z" fill="#4CC4CE"/>
<path d="M42.6666 62.5322C31.8132 62.5322 23.0133 53.7323 23.0133 42.879C23.0133 32.0257 31.8132 23.2257 42.6666 23.2257C53.5199 23.2257 62.3198 32.0257 62.3198 42.879H85.3331C85.3331 19.319 66.2265 0.212402 42.6666 0.212402C19.1066 0.212402 0 19.319 0 42.879C0 66.4389 19.1066 85.5455 42.6666 85.5455C50.5065 85.5455 57.8532 83.4257 64.1732 79.7324L52.5733 59.8522C49.6533 61.5589 46.2799 62.5322 42.6666 62.5322Z" fill="white"/>
</svg>
