<svg width="40" height="41" viewBox="0 0 40 41" fill="none" xmlns="http://www.w3.org/2000/svg">
<path d="M20 0.212402C14.6957 0.212402 9.60859 2.31954 5.85786 6.07027C2.10714 9.82099 0 14.9081 0 20.2124C0 25.5167 2.10714 30.6038 5.85786 34.3545C9.60859 38.1053 14.6957 40.2124 20 40.2124C25.3043 40.2124 30.3914 38.1053 34.1421 34.3545C37.8929 30.6038 40 25.5167 40 20.2124C40 14.9081 37.8929 9.82099 34.1421 6.07027C30.3914 2.31954 25.3043 0.212402 20 0.212402Z" fill="#29B6F6"/>
<path d="M29.95 11.2124L26.204 30.3384C26.204 30.3384 26.043 31.2124 24.959 31.2124C24.383 31.2124 24.086 30.9384 24.086 30.9384L15.972 24.2054L12.002 22.2044L6.907 20.8494C6.907 20.8494 6 20.5874 6 19.8374C6 19.2124 6.933 18.9144 6.933 18.9144L28.249 10.4464C28.249 10.4464 28.9 10.2114 29.375 10.2124C29.667 10.2124 30 10.3374 30 10.7124C30 10.9624 29.95 11.2124 29.95 11.2124Z" fill="white"/>
<path d="M19 26.7174L15.574 30.0914C15.574 30.0914 15.425 30.2064 15.226 30.2114C15.157 30.2134 15.083 30.2024 15.007 30.1684L15.971 24.2034L19 26.7174Z" fill="#B0BEC5"/>
<path d="M25.897 14.4083C25.728 14.1883 25.416 14.1483 25.196 14.3153L12 22.2123C12 22.2123 14.106 28.1043 14.427 29.1243C14.749 30.1453 15.007 30.1693 15.007 30.1693L15.971 24.2043L25.803 15.1083C26.023 14.9413 26.064 14.6283 25.897 14.4083Z" fill="#CFD8DC"/>
</svg>
