<svg width="137" height="25" viewBox="0 0 137 25" fill="none" xmlns="http://www.w3.org/2000/svg">
<path d="M129.749 0.147215C128.741 0.376899 127.974 0.841329 127.704 1.54123C121.026 8.8153 112.502 15.2271 101.776 17.6674C95.9935 18.9839 89.643 19.0261 83.747 18.2702C78.7746 17.6321 73.9583 16.3809 69.3268 14.7286C66.3149 13.658 63.4309 12.4067 60.6606 10.9608C54.2106 7.59479 47.931 3.54691 40.3302 2.33253C33.6529 1.26525 26.5351 1.87739 20.0851 3.61358C13.1947 5.46529 6.81568 8.45927 0.323057 11.1116C0.0389154 11.1921 -0.088851 11.5976 0.0674266 11.9781C0.209497 12.3586 0.564584 12.5861 0.862932 12.5056C9.21668 9.08792 18.1388 4.53654 27.5438 3.80191C30.2148 3.59357 32.9426 3.73198 35.5851 4.10333C43.4416 5.20944 49.4085 9.51763 55.5601 13.5229C59.0124 15.7736 62.6352 17.7629 66.5279 19.4383C71.6283 21.6388 77.098 23.3094 82.724 24.2235C86.4747 24.8308 90.3248 25.1393 94.1323 24.9393C111.877 24.0085 125.956 15.4523 136.896 4.10333C137.435 2.7034 135.83 0.996988 133.301 0.297926C132.022 -0.0516042 130.758 -0.08247 129.749 0.147215Z" fill="#58C0CE"/>
</svg>
