<svg width="41" height="41" viewBox="0 0 41 41" fill="none" xmlns="http://www.w3.org/2000/svg">
<path d="M1.86804 39.5154L4.56204 29.6804C2.90004 26.8024 2.02604 23.5364 2.02704 20.1914C2.03204 9.7264 10.548 1.2124 21.014 1.2124C26.093 1.2144 30.859 3.1914 34.444 6.7784C38.028 10.3664 40.002 15.1344 40 20.2064C39.996 30.6714 31.478 39.1864 21.014 39.1864H21.006C17.829 39.1854 14.706 38.3884 11.933 36.8754L1.86804 39.5154Z" fill="white"/>
<path d="M1.86797 40.0154C1.73597 40.0154 1.60797 39.9634 1.51297 39.8674C1.38797 39.7404 1.33897 39.5554 1.38597 39.3844L4.02497 29.7484C2.38897 26.8424 1.52597 23.5424 1.52797 20.1924C1.53197 9.4504 10.273 0.712402 21.014 0.712402C26.224 0.714402 31.119 2.7434 34.798 6.4254C38.477 10.1084 40.502 15.0024 40.5 20.2064C40.496 30.9474 31.754 39.6864 21.014 39.6864C17.825 39.6854 14.67 38.8984 11.87 37.4094L1.99497 39.9984C1.95297 40.0104 1.91097 40.0154 1.86797 40.0154Z" fill="white"/>
<path d="M21.014 1.2124C26.093 1.2144 30.859 3.1914 34.444 6.7784C38.028 10.3664 40.002 15.1344 40 20.2064C39.996 30.6714 31.478 39.1864 21.014 39.1864H21.006C17.829 39.1854 14.706 38.3884 11.933 36.8754L1.86796 39.5154L4.56196 29.6804C2.89996 26.8024 2.02596 23.5364 2.02696 20.1914C2.03196 9.7264 10.548 1.2124 21.014 1.2124ZM21.014 0.212402C9.99796 0.212402 1.03197 9.1744 1.02697 20.1914C1.02597 23.5584 1.87596 26.8764 3.48796 29.8134L0.902965 39.2524C0.808965 39.5974 0.904965 39.9654 1.15697 40.2194C1.34697 40.4114 1.60397 40.5164 1.86796 40.5164C1.95297 40.5164 2.03797 40.5054 2.12197 40.4834L11.809 37.9434C14.637 39.4114 17.807 40.1864 21.006 40.1874C32.03 40.1874 40.996 31.2244 41.001 20.2074C41.003 14.8684 38.926 9.8484 35.153 6.0724C31.378 2.2954 26.357 0.214402 21.014 0.212402Z" fill="#CFD8DC"/>
<path d="M32.1761 9.04446C29.1961 6.06246 25.2351 4.41946 21.0191 4.41846C12.3151 4.41846 5.23606 11.4945 5.23206 20.1925C5.23106 23.1735 6.06506 26.0755 7.64506 28.5885L8.02106 29.1855L6.42606 35.0065L12.3991 33.4405L12.9761 33.7825C15.3981 35.2205 18.1761 35.9805 21.0081 35.9815H21.0141C29.7121 35.9815 36.7911 28.9045 36.7941 20.2055C36.7951 15.9905 35.1561 12.0265 32.1761 9.04446Z" fill="#40C351"/>
<path fill-rule="evenodd" clip-rule="evenodd" d="M16.268 12.2573C15.913 11.4673 15.539 11.4513 15.2 11.4373C14.923 11.4253 14.607 11.4263 14.291 11.4263C13.975 11.4263 13.461 11.5453 13.026 12.0203C12.591 12.4953 11.365 13.6423 11.365 15.9763C11.365 18.3103 13.065 20.5663 13.302 20.8823C13.539 21.1983 16.584 26.1413 21.406 28.0433C25.413 29.6233 26.229 29.3093 27.099 29.2303C27.969 29.1513 29.906 28.0833 30.301 26.9753C30.696 25.8673 30.696 24.9183 30.578 24.7203C30.459 24.5223 30.143 24.4043 29.669 24.1663C29.195 23.9283 26.862 22.7813 26.427 22.6233C25.992 22.4653 25.676 22.3863 25.359 22.8613C25.043 23.3353 24.134 24.4043 23.857 24.7203C23.58 25.0373 23.303 25.0773 22.829 24.8393C22.355 24.6013 20.827 24.1013 19.014 22.4853C17.604 21.2283 16.652 19.6753 16.375 19.2003C16.098 18.7263 16.345 18.4693 16.583 18.2323C16.796 18.0193 17.057 17.6783 17.295 17.4013C17.532 17.1243 17.611 16.9263 17.769 16.6103C17.927 16.2933 17.848 16.0163 17.729 15.7793C17.612 15.5413 16.69 13.1953 16.268 12.2573Z" fill="white"/>
</svg>
