<svg width="70" height="70" viewBox="0 0 70 70" fill="none" xmlns="http://www.w3.org/2000/svg">
<path d="M34.7114 65.3515C36.8534 65.3515 38.5899 63.615 38.5899 61.473C38.5899 59.331 36.8534 57.5946 34.7114 57.5946C32.5694 57.5946 30.833 59.331 30.833 61.473C30.833 63.615 32.5694 65.3515 34.7114 65.3515Z" fill="url(#paint0_radial_201_269)"/>
<path d="M39.478 48.5012H30.1133C28.6031 48.5012 27.3789 49.7254 27.3789 51.2356V60.4647C27.3789 61.9748 28.6031 63.199 30.1133 63.199H39.478C40.9881 63.199 42.2123 61.9748 42.2123 60.4647V51.2356C42.2123 49.7254 40.9881 48.5012 39.478 48.5012Z" fill="url(#paint1_linear_201_269)"/>
<path d="M39.478 48.5012H30.1133C28.6031 48.5012 27.3789 49.7254 27.3789 51.2356V60.4647C27.3789 61.9748 28.6031 63.199 30.1133 63.199H39.478C40.9881 63.199 42.2123 61.9748 42.2123 60.4647V51.2356C42.2123 49.7254 40.9881 48.5012 39.478 48.5012Z" fill="url(#paint2_linear_201_269)"/>
<path d="M39.478 48.5012H30.1133C28.6031 48.5012 27.3789 49.7254 27.3789 51.2356V60.4647C27.3789 61.9748 28.6031 63.199 30.1133 63.199H39.478C40.9881 63.199 42.2123 61.9748 42.2123 60.4647V51.2356C42.2123 49.7254 40.9881 48.5012 39.478 48.5012Z" fill="url(#paint3_radial_201_269)"/>
<path d="M39.478 48.5012H30.1133C28.6031 48.5012 27.3789 49.7254 27.3789 51.2356V60.4647C27.3789 61.9748 28.6031 63.199 30.1133 63.199H39.478C40.9881 63.199 42.2123 61.9748 42.2123 60.4647V51.2356C42.2123 49.7254 40.9881 48.5012 39.478 48.5012Z" fill="url(#paint4_linear_201_269)"/>
<g filter="url(#filter0_i_201_269)">
<path d="M34.4903 50.2446H34.6084C35.8247 50.2381 38.6203 50.1921 39.7425 49.9887C40.9456 49.77 41.1009 49.1684 41.3153 48.2278C42.6322 42.4221 44.8415 40.1909 46.3203 38.699C46.5493 38.4701 46.7578 38.2542 46.9459 38.0515C47.5869 37.3472 48.1425 36.7259 48.5647 36.2468C51.0919 33.5635 52.7802 30.2004 53.422 26.5707C54.0638 22.9409 53.6313 19.2028 52.1775 15.8155C50.7237 12.4283 48.312 9.53955 45.2388 7.50429C42.1656 5.46904 38.5648 4.37594 34.8788 4.35932C31.1928 4.34271 27.5822 5.4033 24.4908 7.41076C21.3993 9.41823 18.9617 12.2851 17.4775 15.6591C15.9932 19.0331 15.527 22.7672 16.136 26.4026C16.7451 30.038 18.403 33.4162 20.9059 36.1222C21.3434 36.6165 21.9384 37.2837 22.6384 38.0515C22.8406 38.2734 23.0492 38.4894 23.264 38.699C24.7406 40.1909 26.9522 42.4243 28.269 48.2278C28.4834 49.1684 28.6387 49.77 29.8419 49.9887C30.9597 50.1921 33.2237 50.2381 34.37 50.2425L34.4903 50.2446Z" fill="url(#paint5_radial_201_269)"/>
<path d="M34.4903 50.2446H34.6084C35.8247 50.2381 38.6203 50.1921 39.7425 49.9887C40.9456 49.77 41.1009 49.1684 41.3153 48.2278C42.6322 42.4221 44.8415 40.1909 46.3203 38.699C46.5493 38.4701 46.7578 38.2542 46.9459 38.0515C47.5869 37.3472 48.1425 36.7259 48.5647 36.2468C51.0919 33.5635 52.7802 30.2004 53.422 26.5707C54.0638 22.9409 53.6313 19.2028 52.1775 15.8155C50.7237 12.4283 48.312 9.53955 45.2388 7.50429C42.1656 5.46904 38.5648 4.37594 34.8788 4.35932C31.1928 4.34271 27.5822 5.4033 24.4908 7.41076C21.3993 9.41823 18.9617 12.2851 17.4775 15.6591C15.9932 19.0331 15.527 22.7672 16.136 26.4026C16.7451 30.038 18.403 33.4162 20.9059 36.1222C21.3434 36.6165 21.9384 37.2837 22.6384 38.0515C22.8406 38.2734 23.0492 38.4894 23.264 38.699C24.7406 40.1909 26.9522 42.4243 28.269 48.2278C28.4834 49.1684 28.6387 49.77 29.8419 49.9887C30.9597 50.1921 33.2237 50.2381 34.37 50.2425L34.4903 50.2446Z" fill="url(#paint6_radial_201_269)"/>
</g>
<path d="M38.198 22.4897C42.2186 22.4897 45.478 19.2303 45.478 15.2097C45.478 11.1891 42.2186 7.92969 38.198 7.92969C34.1773 7.92969 30.918 11.1891 30.918 15.2097C30.918 19.2303 34.1773 22.4897 38.198 22.4897Z" fill="url(#paint7_linear_201_269)"/>
<g filter="url(#filter1_i_201_269)">
<path d="M33.8602 50.238C33.7836 45.4868 33.4052 42.3587 32.8277 40.1799C32.1648 37.6709 31.2352 36.4174 30.2508 35.4265L30.2398 35.4134L30.2267 35.4024C29.2776 34.5046 28.6196 33.3427 28.3381 32.0669C28.0565 30.7911 28.1643 29.4602 28.6474 28.2463C29.1305 27.0325 29.9668 25.9915 31.048 25.2581C32.1293 24.5247 33.4057 24.1327 34.7122 24.1327C36.0187 24.1327 37.2951 24.5247 38.3763 25.2581C39.4576 25.9915 40.2938 27.0325 40.777 28.2463C41.2601 29.4602 41.3679 30.7911 41.0863 32.0669C40.8047 33.3427 40.1468 34.5046 39.1977 35.4024L39.1845 35.4134L39.1714 35.4265C38.2067 36.4021 37.2639 37.5702 36.5923 40.0596C36.0105 42.2143 35.6298 45.3534 35.5533 50.2337C36.2139 50.2227 37.0036 50.203 37.743 50.168C37.8217 45.4255 38.1936 42.5205 38.7055 40.6305C39.2567 38.5809 39.9677 37.7321 40.7136 36.9774C41.977 35.7771 42.8516 34.2256 43.2244 32.5233C43.5972 30.8209 43.451 29.0459 42.8048 27.4274C42.1586 25.809 41.042 24.4215 39.5992 23.444C38.1565 22.4666 36.4538 21.9441 34.7111 21.9441C32.9684 21.9441 31.2657 22.4666 29.823 23.444C28.3802 24.4215 27.2636 25.809 26.6174 27.4274C25.9712 29.0459 25.825 30.8209 26.1978 32.5233C26.5706 34.2256 27.4452 35.7771 28.7086 36.9774C29.437 37.7146 30.1567 38.6355 30.7145 40.7399C31.222 42.6627 31.5895 45.5612 31.6705 50.168C32.4295 50.2118 33.228 50.2293 33.858 50.238" fill="#FFAD55"/>
</g>
<g filter="url(#filter2_f_201_269)">
<path d="M36.923 49.7415C36.923 39.305 38.522 37.6381 40.237 35.9078C41.3453 34.8596 42.1135 33.503 42.4423 32.0134C42.7711 30.5238 42.6453 28.9699 42.0812 27.5526C41.5171 26.1353 40.5407 24.9198 39.2783 24.0636C38.0159 23.2073 36.5256 22.7495 35.0002 22.7495C33.4747 22.7495 31.9844 23.2073 30.722 24.0636C29.4596 24.9198 28.4832 26.1353 27.9191 27.5526C27.355 28.9699 27.2293 30.5238 27.558 32.0134C27.8868 33.503 28.655 34.8596 29.7633 35.9078C31.4783 37.6381 33.0686 40.635 33.0686 49.7415" stroke="url(#paint8_linear_201_269)" stroke-width="0.1875"/>
</g>
<g filter="url(#filter3_f_201_269)">
<path d="M40.7537 52.8313L28.3466 54.7753C27.7081 54.8753 27.2715 55.4741 27.3716 56.1126C27.4716 56.7512 28.0704 57.1877 28.709 57.0877L41.116 55.1437C41.7546 55.0436 42.1911 54.4449 42.0911 53.8063C41.991 53.1678 41.3923 52.7312 40.7537 52.8313Z" fill="#7E6693"/>
</g>
<g filter="url(#filter4_f_201_269)">
<path d="M40.7537 58.0179L28.3466 59.9619C27.7081 60.062 27.2715 60.6607 27.3716 61.2993C27.4716 61.9378 28.0704 62.3744 28.709 62.2743L41.116 60.3303C41.7546 60.2303 42.1911 59.6315 42.0911 58.9929C41.991 58.3544 41.3923 57.9179 40.7537 58.0179Z" fill="#7E6693"/>
</g>
<path d="M42.3504 57.4446L26.7513 59.8887C26.0937 59.9918 25.6441 60.6085 25.7471 61.2661C25.8502 61.9238 26.4668 62.3734 27.1245 62.2703L42.7235 59.8262C43.3812 59.7231 43.8308 59.1065 43.7277 58.4488C43.6247 57.7912 43.008 57.3416 42.3504 57.4446Z" fill="url(#paint9_linear_201_269)"/>
<path d="M42.3504 57.4446L26.7513 59.8887C26.0937 59.9918 25.6441 60.6085 25.7471 61.2661C25.8502 61.9238 26.4668 62.3734 27.1245 62.2703L42.7235 59.8262C43.3812 59.7231 43.8308 59.1065 43.7277 58.4488C43.6247 57.7912 43.008 57.3416 42.3504 57.4446Z" fill="url(#paint10_linear_201_269)"/>
<path d="M42.3504 57.4446L26.7513 59.8887C26.0937 59.9918 25.6441 60.6085 25.7471 61.2661C25.8502 61.9238 26.4668 62.3734 27.1245 62.2703L42.7235 59.8262C43.3812 59.7231 43.8308 59.1065 43.7277 58.4488C43.6247 57.7912 43.008 57.3416 42.3504 57.4446Z" fill="url(#paint11_linear_201_269)"/>
<path d="M42.3504 57.4446L26.7513 59.8887C26.0937 59.9918 25.6441 60.6085 25.7471 61.2661C25.8502 61.9238 26.4668 62.3734 27.1245 62.2703L42.7235 59.8262C43.3812 59.7231 43.8308 59.1065 43.7277 58.4488C43.6247 57.7912 43.008 57.3416 42.3504 57.4446Z" fill="url(#paint12_radial_201_269)"/>
<path d="M42.3504 52.2449L26.7513 54.689C26.0937 54.7921 25.6441 55.4087 25.7471 56.0664C25.8502 56.724 26.4668 57.1736 27.1245 57.0706L42.7235 54.6265C43.3812 54.5234 43.8308 53.9067 43.7277 53.2491C43.6247 52.5914 43.008 52.1418 42.3504 52.2449Z" fill="url(#paint13_linear_201_269)"/>
<path d="M42.3504 52.2449L26.7513 54.689C26.0937 54.7921 25.6441 55.4087 25.7471 56.0664C25.8502 56.724 26.4668 57.1736 27.1245 57.0706L42.7235 54.6265C43.3812 54.5234 43.8308 53.9067 43.7277 53.2491C43.6247 52.5914 43.008 52.1418 42.3504 52.2449Z" fill="url(#paint14_linear_201_269)"/>
<path d="M42.3504 52.2449L26.7513 54.689C26.0937 54.7921 25.6441 55.4087 25.7471 56.0664C25.8502 56.724 26.4668 57.1736 27.1245 57.0706L42.7235 54.6265C43.3812 54.5234 43.8308 53.9067 43.7277 53.2491C43.6247 52.5914 43.008 52.1418 42.3504 52.2449Z" fill="url(#paint15_linear_201_269)"/>
<path d="M42.3504 52.2449L26.7513 54.689C26.0937 54.7921 25.6441 55.4087 25.7471 56.0664C25.8502 56.724 26.4668 57.1736 27.1245 57.0706L42.7235 54.6265C43.3812 54.5234 43.8308 53.9067 43.7277 53.2491C43.6247 52.5914 43.008 52.1418 42.3504 52.2449Z" fill="url(#paint16_radial_201_269)"/>
<defs>
<filter id="filter0_i_201_269" x="15.876" y="4.35913" width="38.0225" height="45.998" filterUnits="userSpaceOnUse" color-interpolation-filters="sRGB">
<feFlood flood-opacity="0" result="BackgroundImageFix"/>
<feBlend mode="normal" in="SourceGraphic" in2="BackgroundImageFix" result="shape"/>
<feColorMatrix in="SourceAlpha" type="matrix" values="0 0 0 0 0 0 0 0 0 0 0 0 0 0 0 0 0 0 127 0" result="hardAlpha"/>
<feOffset dx="0.1875" dy="0.1125"/>
<feGaussianBlur stdDeviation="0.375"/>
<feComposite in2="hardAlpha" operator="arithmetic" k2="-1" k3="1"/>
<feColorMatrix type="matrix" values="0 0 0 0 0.992157 0 0 0 0 0.666667 0 0 0 0 0.309804 0 0 0 1 0"/>
<feBlend mode="normal" in2="shape" result="effect1_innerShadow_201_269"/>
</filter>
<filter id="filter1_i_201_269" x="25.9961" y="21.9441" width="17.6172" height="28.2939" filterUnits="userSpaceOnUse" color-interpolation-filters="sRGB">
<feFlood flood-opacity="0" result="BackgroundImageFix"/>
<feBlend mode="normal" in="SourceGraphic" in2="BackgroundImageFix" result="shape"/>
<feColorMatrix in="SourceAlpha" type="matrix" values="0 0 0 0 0 0 0 0 0 0 0 0 0 0 0 0 0 0 127 0" result="hardAlpha"/>
<feOffset dx="0.1875"/>
<feGaussianBlur stdDeviation="0.1875"/>
<feComposite in2="hardAlpha" operator="arithmetic" k2="-1" k3="1"/>
<feColorMatrix type="matrix" values="0 0 0 0 1 0 0 0 0 0.572549 0 0 0 0 0.254902 0 0 0 1 0"/>
<feBlend mode="normal" in2="shape" result="effect1_innerShadow_201_269"/>
</filter>
<filter id="filter2_f_201_269" x="27.0977" y="22.4683" width="15.8047" height="27.4608" filterUnits="userSpaceOnUse" color-interpolation-filters="sRGB">
<feFlood flood-opacity="0" result="BackgroundImageFix"/>
<feBlend mode="normal" in="SourceGraphic" in2="BackgroundImageFix" result="shape"/>
<feGaussianBlur stdDeviation="0.09375" result="effect1_foregroundBlur_201_269"/>
</filter>
<filter id="filter3_f_201_269" x="27.1699" y="52.6295" width="15.123" height="4.65991" filterUnits="userSpaceOnUse" color-interpolation-filters="sRGB">
<feFlood flood-opacity="0" result="BackgroundImageFix"/>
<feBlend mode="normal" in="SourceGraphic" in2="BackgroundImageFix" result="shape"/>
<feGaussianBlur stdDeviation="0.09375" result="effect1_foregroundBlur_201_269"/>
</filter>
<filter id="filter4_f_201_269" x="27.1699" y="57.8162" width="15.123" height="4.65991" filterUnits="userSpaceOnUse" color-interpolation-filters="sRGB">
<feFlood flood-opacity="0" result="BackgroundImageFix"/>
<feBlend mode="normal" in="SourceGraphic" in2="BackgroundImageFix" result="shape"/>
<feGaussianBlur stdDeviation="0.09375" result="effect1_foregroundBlur_201_269"/>
</filter>
<radialGradient id="paint0_radial_201_269" cx="0" cy="0" r="1" gradientUnits="userSpaceOnUse" gradientTransform="translate(35.7374 63.678) rotate(96.6541) scale(2.06469 4.78218)">
<stop offset="0.268" stop-color="#AC90C6"/>
<stop offset="1" stop-color="#8E6AAA"/>
</radialGradient>
<linearGradient id="paint1_linear_201_269" x1="42.2123" y1="56.4418" x2="27.3789" y2="56.4418" gradientUnits="userSpaceOnUse">
<stop stop-color="#CDC2D1"/>
<stop offset="1" stop-color="#947C8D"/>
</linearGradient>
<linearGradient id="paint2_linear_201_269" x1="26.6461" y1="57.5597" x2="30.2686" y2="57.5597" gradientUnits="userSpaceOnUse">
<stop stop-color="#8A7B88"/>
<stop offset="1" stop-color="#8A7B88" stop-opacity="0"/>
</linearGradient>
<radialGradient id="paint3_radial_201_269" cx="0" cy="0" r="1" gradientUnits="userSpaceOnUse" gradientTransform="translate(37.8548 49.525) rotate(88.6357) scale(1.80441 8.03342)">
<stop offset="0.229" stop-color="#EDE2EB"/>
<stop offset="1" stop-color="#C8BCCB" stop-opacity="0"/>
</radialGradient>
<linearGradient id="paint4_linear_201_269" x1="38.1983" y1="63.199" x2="38.1983" y2="60.4297" gradientUnits="userSpaceOnUse">
<stop stop-color="#7E5F9E"/>
<stop offset="1" stop-color="#7E5F9E" stop-opacity="0"/>
</linearGradient>
<radialGradient id="paint5_radial_201_269" cx="0" cy="0" r="1" gradientUnits="userSpaceOnUse" gradientTransform="translate(42.7786 17.7758) rotate(138.066) scale(21.6862 17.8822)">
<stop offset="0.286" stop-color="#FFEC87"/>
<stop offset="1" stop-color="#FFCD4B"/>
</radialGradient>
<radialGradient id="paint6_radial_201_269" cx="0" cy="0" r="1" gradientUnits="userSpaceOnUse" gradientTransform="translate(44.8284 29.3956) rotate(-147.604) scale(31.8979 30.6814)">
<stop offset="0.622" stop-color="#FFB239" stop-opacity="0"/>
<stop offset="1" stop-color="#FFB239"/>
</radialGradient>
<linearGradient id="paint7_linear_201_269" x1="35.6517" y1="17.5591" x2="43.1373" y2="11.7272" gradientUnits="userSpaceOnUse">
<stop stop-color="white" stop-opacity="0"/>
<stop offset="0.594" stop-color="white"/>
</linearGradient>
<linearGradient id="paint8_linear_201_269" x1="43.1377" y1="24.0559" x2="34.3745" y2="44.9312" gradientUnits="userSpaceOnUse">
<stop stop-color="#FFBF5C"/>
<stop offset="1" stop-color="#FFBF5C" stop-opacity="0"/>
</linearGradient>
<linearGradient id="paint9_linear_201_269" x1="34.3356" y1="58.7203" x2="34.9178" y2="61.3193" gradientUnits="userSpaceOnUse">
<stop stop-color="#B1969A"/>
<stop offset="1" stop-color="#DAD2E2"/>
</linearGradient>
<linearGradient id="paint10_linear_201_269" x1="36.7964" y1="60.7039" x2="36.5242" y2="58.9952" gradientUnits="userSpaceOnUse">
<stop stop-color="#8A68A9"/>
<stop offset="1" stop-color="#DEC2E3" stop-opacity="0"/>
</linearGradient>
<linearGradient id="paint11_linear_201_269" x1="25.5597" y1="61.4549" x2="31.5327" y2="60.1913" gradientUnits="userSpaceOnUse">
<stop stop-color="#958387"/>
<stop offset="1" stop-color="#958387" stop-opacity="0"/>
</linearGradient>
<radialGradient id="paint12_radial_201_269" cx="0" cy="0" r="1" gradientUnits="userSpaceOnUse" gradientTransform="translate(40.5892 58.5553) rotate(81.4165) scale(1.83206 10.8437)">
<stop offset="0.127" stop-color="#FCF0FC"/>
<stop offset="1" stop-color="#E5C9E3" stop-opacity="0"/>
</radialGradient>
<linearGradient id="paint13_linear_201_269" x1="34.336" y1="53.5228" x2="34.9178" y2="56.1196" gradientUnits="userSpaceOnUse">
<stop stop-color="#B1969A"/>
<stop offset="1" stop-color="#DAD2E2"/>
</linearGradient>
<linearGradient id="paint14_linear_201_269" x1="36.7964" y1="55.5042" x2="36.5242" y2="53.7954" gradientUnits="userSpaceOnUse">
<stop stop-color="#8A68A9"/>
<stop offset="1" stop-color="#DEC2E3" stop-opacity="0"/>
</linearGradient>
<linearGradient id="paint15_linear_201_269" x1="25.5601" y1="56.2573" x2="31.5327" y2="54.9916" gradientUnits="userSpaceOnUse">
<stop stop-color="#958387"/>
<stop offset="1" stop-color="#958387" stop-opacity="0"/>
</linearGradient>
<radialGradient id="paint16_radial_201_269" cx="0" cy="0" r="1" gradientUnits="userSpaceOnUse" gradientTransform="translate(40.5892 53.3556) rotate(81.4165) scale(1.83206 10.8436)">
<stop offset="0.127" stop-color="#FCF0FC"/>
<stop offset="1" stop-color="#E5C9E3" stop-opacity="0"/>
</radialGradient>
</defs>
</svg>
